<?xml version="1.0" standalone="no"?>
<!DOCTYPE svg PUBLIC "-//W3C//DTD SVG 20010904//EN"
 "http://www.w3.org/TR/2001/REC-SVG-20010904/DTD/svg10.dtd">
<svg version="1.0" xmlns="http://www.w3.org/2000/svg"
 width="512.000000pt" height="512.000000pt" viewBox="0 0 512.000000 512.000000"
 preserveAspectRatio="xMidYMid meet">
<metadata>
Created by potrace 1.14, written by Peter Selinger 2001-2017
</metadata>
<g transform="translate(0.000000,512.000000) scale(0.100000,-0.100000)"
fill="#000000" stroke="none">
<path d="M1838 4535 c-7 -7 -47 -17 -75 -19 -13 0 -23 -4 -23 -8 0 -5 -11 -8
-25 -8 -14 0 -42 -7 -61 -15 -19 -8 -38 -14 -42 -13 -6 2 -29 -5 -102 -28 -8
-3 -17 -6 -20 -6 -3 -1 -34 -14 -70 -30 -36 -16 -66 -29 -68 -29 -8 3 -139
-66 -149 -79 -7 -8 -13 -11 -13 -7 0 12 -22 -7 -151 -132 -65 -63 -117 -117
-114 -119 2 -2 -10 -17 -28 -33 -17 -16 -28 -29 -24 -29 4 0 3 -6 -3 -12 -57
-66 -126 -179 -122 -200 1 -5 -3 -8 -9 -8 -5 0 -7 -4 -4 -10 3 -5 1 -10 -6
-10 -7 0 -9 -3 -6 -6 4 -4 -3 -20 -14 -35 -11 -16 -18 -29 -15 -29 3 0 1 -12
-5 -27 -19 -49 -40 -156 -42 -211 -2 -46 -6 -55 -31 -72 -36 -23 -277 -262
-271 -268 2 -2 -9 -15 -26 -29 -16 -14 -29 -29 -29 -35 0 -5 -6 -16 -13 -23
-27 -31 -37 -44 -37 -51 0 -3 -9 -19 -21 -35 -11 -16 -17 -29 -12 -29 4 0 4
-4 -2 -8 -15 -11 -62 -111 -74 -159 -7 -23 -15 -45 -20 -47 -9 -6 -37 -134
-33 -148 1 -5 -3 -8 -9 -8 -5 0 -9 -8 -8 -17 1 -10 -1 -25 -4 -33 -7 -20 -20
-90 -21 -117 -1 -12 -4 -25 -8 -29 -12 -11 -10 -302 2 -309 6 -4 8 -10 5 -15
-3 -5 -1 -11 5 -15 5 -3 10 -22 10 -41 0 -19 4 -34 9 -34 5 0 9 -10 9 -22 0
-13 2 -30 4 -38 6 -19 41 -93 48 -100 3 -3 6 -11 8 -19 2 -8 12 -27 23 -42 10
-15 19 -31 19 -35 0 -5 9 -17 19 -29 53 -55 69 -74 65 -78 -2 -2 5 -12 16 -22
11 -10 20 -22 20 -27 0 -5 6 -16 13 -23 26 -30 37 -44 37 -50 0 -33 172 -201
238 -231 28 -13 55 -23 58 -23 4 0 10 -3 13 -8 9 -12 103 -59 113 -56 4 2 8
-1 8 -6 0 -8 37 -24 53 -22 4 1 7 -3 7 -8 0 -5 14 -14 30 -20 16 -5 30 -15 30
-21 0 -6 4 -8 10 -5 5 3 10 1 10 -5 0 -7 7 -10 15 -6 8 3 15 1 15 -3 0 -5 12
-14 28 -20 15 -6 47 -24 72 -40 25 -16 82 -48 128 -71 45 -23 82 -47 82 -52 0
-6 7 -8 15 -4 8 3 15 1 15 -4 0 -6 7 -10 16 -10 9 0 33 -10 53 -22 20 -13 36
-21 36 -19 0 2 18 -4 40 -14 22 -9 49 -18 60 -21 10 -2 35 -11 55 -21 19 -9
41 -18 48 -20 20 -5 36 -10 52 -15 23 -9 104 -31 115 -33 6 -1 23 -6 38 -13
16 -7 39 -12 52 -12 13 0 30 -6 37 -12 15 -14 29 -19 68 -24 14 -1 43 -8 65
-14 22 -6 49 -12 60 -15 11 -2 31 -6 45 -10 55 -15 159 -35 188 -37 6 -1 12
-4 12 -8 0 -3 125 -7 278 -8 152 -2 366 -5 475 -8 109 -3 204 -1 210 4 7 4 41
7 77 6 36 -1 70 1 75 5 6 3 26 7 45 7 19 1 63 7 96 13 34 6 73 12 88 13 14 1
26 6 26 9 0 4 15 6 33 5 17 -2 37 1 43 6 7 5 16 8 20 6 5 -1 25 4 44 11 19 8
43 13 53 12 9 -1 17 2 17 6 0 5 10 10 23 11 49 3 137 25 137 34 0 5 5 6 10 3
6 -3 16 -3 23 2 10 6 116 46 152 56 6 2 27 11 48 20 20 9 40 16 42 16 3 0 15
10 27 20 11 11 25 18 30 14 6 -3 23 4 39 16 15 11 31 21 34 21 3 0 11 4 18 10
29 24 122 90 127 90 7 0 61 86 64 102 2 7 7 21 11 32 5 11 3 21 -5 26 -9 6 0
15 33 30 39 18 90 66 144 133 17 21 45 126 44 162 -2 65 -18 125 -34 125 -6 0
-7 3 -4 7 4 3 2 12 -4 20 -6 7 -9 13 -5 13 4 0 0 14 -9 30 -9 17 -19 30 -24
30 -4 0 -8 6 -8 13 0 31 -115 160 -153 172 -11 4 -20 10 -20 14 0 4 -16 5 -36
3 -26 -3 -35 -1 -30 7 4 6 12 9 17 6 5 -4 9 -2 9 4 0 6 14 9 30 7 17 -2 30 0
30 4 0 9 39 23 58 21 6 -1 12 3 12 9 0 6 6 10 13 9 6 -1 25 3 40 9 16 7 34 12
40 12 7 0 22 7 33 15 12 8 24 11 28 8 3 -3 6 -1 6 5 0 7 4 12 10 12 13 0 124
109 142 140 37 62 -5 184 -67 198 -16 3 -34 5 -39 4 -14 -4 -37 20 -32 35 3 7
2 13 -3 13 -4 0 -14 18 -21 40 -7 22 -17 40 -22 40 -5 0 -17 20 -28 44 -10 24
-23 47 -29 50 -5 4 -24 32 -42 64 -18 31 -41 64 -51 72 -18 14 -16 18 32 68
27 29 50 57 50 63 0 6 6 9 13 6 6 -2 28 4 47 13 19 10 37 18 40 17 3 0 22 15
42 34 44 40 66 90 61 138 -2 23 3 42 15 55 14 17 48 81 43 81 -1 0 7 25 17 55
10 30 17 60 15 67 -2 6 1 14 6 18 15 8 14 152 0 161 -6 3 -9 17 -6 30 2 14 1
27 -3 29 -4 3 -11 21 -14 40 -4 19 -11 35 -16 35 -5 0 -7 10 -4 23 3 12 7 32
10 45 9 46 -65 144 -166 217 -23 17 -44 28 -47 27 -3 -2 -9 0 -12 5 -21 28
-175 82 -248 86 -18 1 -33 5 -33 10 0 14 -63 77 -77 77 -7 0 -13 4 -13 8 0 7
-119 64 -140 68 -3 0 -25 7 -50 14 -25 7 -48 14 -52 16 -5 1 -11 3 -15 4 -5 2
-12 4 -18 5 -5 1 -17 4 -25 8 -24 9 -91 18 -142 20 -41 2 -53 8 -90 45 -24 23
-49 42 -55 42 -6 0 -13 7 -17 15 -3 8 -12 15 -21 15 -8 0 -15 5 -15 10 0 6
-12 15 -27 21 -16 6 -28 9 -28 8 0 -2 -10 6 -23 16 -12 11 -26 20 -30 20 -4 1
-17 7 -30 14 -27 15 -111 39 -162 47 -70 12 -190 14 -190 5 0 -6 -16 -8 -35
-7 -19 2 -37 0 -40 -4 -3 -5 -13 -9 -23 -9 -20 0 -70 -10 -92 -18 -8 -3 -23
-5 -32 -4 -10 1 -18 -3 -18 -9 0 -6 -12 -8 -30 -5 -17 3 -30 1 -30 -5 0 -5
-13 -10 -29 -10 -17 0 -33 -4 -36 -10 -3 -5 -17 -10 -31 -10 -13 0 -24 -4 -24
-9 0 -5 -16 -15 -35 -21 -19 -6 -35 -16 -35 -22 0 -6 -3 -9 -6 -5 -4 3 -30 -7
-58 -22 l-52 -28 -35 26 c-18 14 -59 52 -89 84 -31 31 -62 57 -70 57 -8 0 -30
9 -48 20 -18 11 -39 19 -45 18 -7 -1 -22 3 -34 10 -12 7 -33 13 -47 14 -15 1
-26 5 -26 9 0 6 -2 6 -65 13 -21 2 -41 8 -42 12 -2 5 -23 8 -48 6 -25 -2 -45
0 -45 6 0 5 -22 8 -50 7 -27 -1 -50 2 -50 7 0 9 -183 12 -192 3z"/>
</g>
</svg>
